<svg width="640" height="360" viewBox="0 0 640 360" fill="none" xmlns="http://www.w3.org/2000/svg">
<rect width="640" height="360" fill="#0B0A0A"/>
<rect width="1440" height="2120" transform="translate(-64 -32)" fill="#F6F7F9"/>
<g clip-path="url(#clip0_0_1)">
<rect width="640" height="360" rx="10" fill="#54A6FF"/>
<circle cx="230" cy="305" r="25" stroke="white" stroke-opacity="0.06" stroke-width="10"/>
<circle cx="230" cy="305" r="75" stroke="white" stroke-opacity="0.06" stroke-width="20"/>
<circle cx="230.5" cy="304.5" r="137.5" stroke="white" stroke-opacity="0.06" stroke-width="20"/>
<circle cx="230" cy="305" r="200" stroke="white" stroke-opacity="0.06" stroke-width="20"/>
<circle cx="230.5" cy="304.5" r="262.5" stroke="white" stroke-opacity="0.06" stroke-width="20"/>
<circle cx="230" cy="305" r="325" stroke="white" stroke-opacity="0.06" stroke-width="20"/>
<circle cx="230.5" cy="304.5" r="387.5" stroke="white" stroke-opacity="0.06" stroke-width="20"/>
<path d="M30.688 61V40.52H24.352V37.16H40.672V40.52H34.432V61H30.688ZM42.1833 61V36.776H45.7993V47.08L45.2233 46.632C45.6499 45.544 46.3326 44.7227 47.2713 44.168C48.2099 43.592 49.2979 43.304 50.5353 43.304C51.8153 43.304 52.9459 43.5813 53.9273 44.136C54.9086 44.6907 55.6766 45.4587 56.2313 46.44C56.7859 47.4213 57.0633 48.5413 57.0633 49.8V61H53.4793V50.792C53.4793 49.9173 53.3086 49.1813 52.9673 48.584C52.6473 47.9653 52.1993 47.496 51.6233 47.176C51.0473 46.8347 50.3859 46.664 49.6393 46.664C48.9139 46.664 48.2526 46.8347 47.6553 47.176C47.0793 47.496 46.6206 47.9653 46.2793 48.584C45.9593 49.2027 45.7993 49.9387 45.7993 50.792V61H42.1833ZM68.1013 61.384C66.3733 61.384 64.8373 60.9893 63.4933 60.2C62.1706 59.3893 61.1359 58.3013 60.3893 56.936C59.6426 55.5493 59.2693 54.0027 59.2693 52.296C59.2693 50.5467 59.6426 49 60.3893 47.656C61.1573 46.312 62.1813 45.256 63.4613 44.488C64.7413 43.6987 66.1919 43.304 67.8133 43.304C69.1146 43.304 70.2773 43.528 71.3013 43.976C72.3253 44.424 73.1893 45.0427 73.8933 45.832C74.5973 46.6 75.1306 47.4853 75.4933 48.488C75.8773 49.4907 76.0693 50.5573 76.0693 51.688C76.0693 51.9653 76.0586 52.2533 76.0373 52.552C76.0159 52.8507 75.9733 53.128 75.9093 53.384H62.1173V50.504H73.8613L72.1333 51.816C72.3466 50.7707 72.2719 49.8427 71.9093 49.032C71.5679 48.2 71.0346 47.5493 70.3093 47.08C69.6053 46.5893 68.7733 46.344 67.8133 46.344C66.8533 46.344 65.9999 46.5893 65.2533 47.08C64.5066 47.5493 63.9306 48.232 63.5253 49.128C63.1199 50.0027 62.9599 51.0693 63.0453 52.328C62.9386 53.5013 63.0986 54.5253 63.5253 55.4C63.9733 56.2747 64.5919 56.9573 65.3813 57.448C66.1919 57.9387 67.1093 58.184 68.1333 58.184C69.1786 58.184 70.0639 57.9493 70.7893 57.48C71.5359 57.0107 72.1226 56.4027 72.5493 55.656L75.4933 57.096C75.1519 57.9067 74.6186 58.6427 73.8933 59.304C73.1893 59.944 72.3359 60.456 71.3333 60.84C70.3519 61.2027 69.2746 61.384 68.1013 61.384ZM83.624 61V37.16H93.672C95.1653 37.16 96.456 37.4267 97.544 37.96C98.632 38.472 99.464 39.2187 100.04 40.2C100.616 41.16 100.904 42.3013 100.904 43.624C100.904 44.776 100.605 45.832 100.008 46.792C99.432 47.7307 98.5253 48.4773 97.288 49.032V47.432C98.376 47.8587 99.2613 48.4027 99.944 49.064C100.627 49.704 101.117 50.4293 101.416 51.24C101.736 52.0507 101.896 52.904 101.896 53.8C101.896 56.04 101.16 57.8 99.688 59.08C98.2373 60.36 96.2427 61 93.704 61H83.624ZM87.4 57.64H93.992C95.2507 57.64 96.2533 57.2987 97 56.616C97.7467 55.912 98.12 54.984 98.12 53.832C98.12 52.6587 97.7467 51.7307 97 51.048C96.2533 50.344 95.2507 49.992 93.992 49.992H87.4V57.64ZM87.4 46.664H93.768C94.792 46.664 95.6133 46.376 96.232 45.8C96.8507 45.2027 97.16 44.424 97.16 43.464C97.16 42.504 96.8507 41.7573 96.232 41.224C95.6133 40.6907 94.792 40.424 93.768 40.424H87.4V46.664ZM112.596 61.384C110.868 61.384 109.332 60.9893 107.988 60.2C106.666 59.3893 105.631 58.3013 104.884 56.936C104.138 55.5493 103.764 54.0027 103.764 52.296C103.764 50.5467 104.138 49 104.884 47.656C105.652 46.312 106.676 45.256 107.956 44.488C109.236 43.6987 110.687 43.304 112.308 43.304C113.61 43.304 114.772 43.528 115.796 43.976C116.82 44.424 117.684 45.0427 118.388 45.832C119.092 46.6 119.626 47.4853 119.988 48.488C120.372 49.4907 120.564 50.5573 120.564 51.688C120.564 51.9653 120.554 52.2533 120.532 52.552C120.511 52.8507 120.468 53.128 120.404 53.384H106.612V50.504H118.356L116.628 51.816C116.842 50.7707 116.767 49.8427 116.404 49.032C116.063 48.2 115.53 47.5493 114.804 47.08C114.1 46.5893 113.268 46.344 112.308 46.344C111.348 46.344 110.495 46.5893 109.748 47.08C109.002 47.5493 108.426 48.232 108.02 49.128C107.615 50.0027 107.455 51.0693 107.54 52.328C107.434 53.5013 107.594 54.5253 108.02 55.4C108.468 56.2747 109.087 56.9573 109.876 57.448C110.687 57.9387 111.604 58.184 112.628 58.184C113.674 58.184 114.559 57.9493 115.284 57.48C116.031 57.0107 116.618 56.4027 117.044 55.656L119.988 57.096C119.647 57.9067 119.114 58.6427 118.388 59.304C117.684 59.944 116.831 60.456 115.828 60.84C114.847 61.2027 113.77 61.384 112.596 61.384ZM129.533 61.384C127.763 61.384 126.205 60.9467 124.861 60.072C123.539 59.1973 122.611 58.024 122.077 56.552L124.861 55.24C125.331 56.2213 125.971 57 126.781 57.576C127.613 58.152 128.531 58.44 129.533 58.44C130.387 58.44 131.08 58.248 131.613 57.864C132.147 57.48 132.413 56.9573 132.413 56.296C132.413 55.8693 132.296 55.528 132.061 55.272C131.827 54.9947 131.528 54.7707 131.165 54.6C130.824 54.4293 130.472 54.3013 130.109 54.216L127.389 53.448C125.896 53.0213 124.776 52.3813 124.029 51.528C123.304 50.6533 122.941 49.64 122.941 48.488C122.941 47.4427 123.208 46.536 123.741 45.768C124.275 44.9787 125.011 44.3707 125.949 43.944C126.888 43.5173 127.944 43.304 129.117 43.304C130.696 43.304 132.104 43.6987 133.341 44.488C134.579 45.256 135.453 46.3333 135.965 47.72L133.181 49.032C132.84 48.2 132.296 47.5387 131.549 47.048C130.824 46.5573 130.003 46.312 129.085 46.312C128.296 46.312 127.667 46.504 127.197 46.888C126.728 47.2507 126.493 47.7307 126.493 48.328C126.493 48.7333 126.6 49.0747 126.813 49.352C127.027 49.608 127.304 49.8213 127.645 49.992C127.987 50.1413 128.339 50.2693 128.701 50.376L131.517 51.208C132.947 51.6133 134.045 52.2533 134.813 53.128C135.581 53.9813 135.965 55.0053 135.965 56.2C135.965 57.224 135.688 58.1307 135.133 58.92C134.6 59.688 133.853 60.296 132.893 60.744C131.933 61.1707 130.813 61.384 129.533 61.384ZM146.036 61.192C144.223 61.192 142.815 60.68 141.812 59.656C140.81 58.632 140.308 57.192 140.308 55.336V46.952H137.268V43.688H137.748C138.559 43.688 139.188 43.4533 139.636 42.984C140.084 42.5147 140.308 41.8747 140.308 41.064V39.72H143.924V43.688H147.86V46.952H143.924V55.176C143.924 55.7733 144.02 56.2853 144.212 56.712C144.404 57.1173 144.714 57.4373 145.14 57.672C145.567 57.8853 146.122 57.992 146.804 57.992C146.975 57.992 147.167 57.9813 147.38 57.96C147.594 57.9387 147.796 57.9173 147.988 57.896V61C147.69 61.0427 147.359 61.0853 146.996 61.128C146.634 61.1707 146.314 61.192 146.036 61.192ZM155.543 61V37.16H164.215C165.815 37.16 167.223 37.4587 168.439 38.056C169.676 38.632 170.636 39.4853 171.319 40.616C172.001 41.7253 172.343 43.0587 172.343 44.616C172.343 46.152 171.991 47.4747 171.287 48.584C170.604 49.6933 169.655 50.5467 168.439 51.144C167.223 51.7413 165.815 52.04 164.215 52.04H159.319V61H155.543ZM159.319 48.68H164.311C165.164 48.68 165.911 48.5093 166.551 48.168C167.191 47.8267 167.692 47.3573 168.055 46.76C168.417 46.1413 168.599 45.416 168.599 44.584C168.599 43.752 168.417 43.0373 168.055 42.44C167.692 41.8213 167.191 41.352 166.551 41.032C165.911 40.6907 165.164 40.52 164.311 40.52H159.319V48.68ZM174.918 61V36.776H178.534V61H174.918ZM186.986 61.384C185.813 61.384 184.778 61.1813 183.882 60.776C183.007 60.3493 182.325 59.7733 181.834 59.048C181.343 58.3013 181.098 57.4267 181.098 56.424C181.098 55.4853 181.301 54.6427 181.706 53.896C182.133 53.1493 182.783 52.52 183.658 52.008C184.533 51.496 185.631 51.1333 186.954 50.92L192.97 49.928V52.776L187.658 53.704C186.698 53.8747 185.994 54.184 185.546 54.632C185.098 55.0587 184.874 55.6133 184.874 56.296C184.874 56.9573 185.119 57.5013 185.61 57.928C186.122 58.3333 186.773 58.536 187.562 58.536C188.543 58.536 189.397 58.3227 190.122 57.896C190.869 57.4693 191.445 56.904 191.85 56.2C192.255 55.4747 192.458 54.6747 192.458 53.8V49.352C192.458 48.4987 192.138 47.8053 191.498 47.272C190.879 46.7173 190.047 46.44 189.002 46.44C188.042 46.44 187.199 46.696 186.474 47.208C185.77 47.6987 185.247 48.3387 184.906 49.128L181.898 47.624C182.218 46.7707 182.741 46.024 183.466 45.384C184.191 44.7227 185.034 44.2107 185.994 43.848C186.975 43.4853 188.01 43.304 189.098 43.304C190.463 43.304 191.669 43.56 192.714 44.072C193.781 44.584 194.602 45.2987 195.178 46.216C195.775 47.112 196.074 48.1573 196.074 49.352V61H192.618V57.864L193.354 57.96C192.949 58.664 192.426 59.272 191.786 59.784C191.167 60.296 190.453 60.6907 189.642 60.968C188.853 61.2453 187.967 61.384 186.986 61.384ZM206.517 61.192C204.704 61.192 203.296 60.68 202.293 59.656C201.291 58.632 200.789 57.192 200.789 55.336V46.952H197.749V43.688H198.229C199.04 43.688 199.669 43.4533 200.117 42.984C200.565 42.5147 200.789 41.8747 200.789 41.064V39.72H204.405V43.688H208.341V46.952H204.405V55.176C204.405 55.7733 204.501 56.2853 204.693 56.712C204.885 57.1173 205.195 57.4373 205.621 57.672C206.048 57.8853 206.603 57.992 207.285 57.992C207.456 57.992 207.648 57.9813 207.861 57.96C208.075 57.9387 208.277 57.9173 208.469 57.896V61C208.171 61.0427 207.84 61.0853 207.477 61.128C207.115 61.1707 206.795 61.192 206.517 61.192ZM212.99 61V46.952H209.79V43.688H212.99V42.792C212.99 41.4907 213.257 40.4027 213.79 39.528C214.324 38.632 215.06 37.9493 215.998 37.48C216.958 37.0107 218.057 36.776 219.294 36.776C219.529 36.776 219.796 36.7973 220.094 36.84C220.393 36.8613 220.638 36.8933 220.83 36.936V40.072C220.66 40.0293 220.468 40.008 220.254 40.008C220.041 39.9867 219.87 39.976 219.742 39.976C218.782 39.976 218.014 40.2 217.438 40.648C216.862 41.0747 216.574 41.7893 216.574 42.792V43.688H220.542V46.952H216.574V61H212.99ZM230.68 61.384C229.016 61.384 227.491 60.9893 226.104 60.2C224.739 59.4107 223.651 58.3333 222.84 56.968C222.03 55.6027 221.624 54.056 221.624 52.328C221.624 50.5787 222.03 49.032 222.84 47.688C223.651 46.3227 224.739 45.256 226.104 44.488C227.47 43.6987 228.995 43.304 230.68 43.304C232.387 43.304 233.912 43.6987 235.256 44.488C236.622 45.256 237.699 46.3227 238.488 47.688C239.299 49.032 239.704 50.5787 239.704 52.328C239.704 54.0773 239.299 55.6347 238.488 57C237.678 58.3653 236.59 59.4427 235.224 60.232C233.859 61 232.344 61.384 230.68 61.384ZM230.68 58.024C231.704 58.024 232.611 57.7787 233.4 57.288C234.19 56.7973 234.808 56.1253 235.256 55.272C235.726 54.3973 235.96 53.416 235.96 52.328C235.96 51.24 235.726 50.2693 235.256 49.416C234.808 48.5627 234.19 47.8907 233.4 47.4C232.611 46.9093 231.704 46.664 230.68 46.664C229.678 46.664 228.771 46.9093 227.96 47.4C227.171 47.8907 226.542 48.5627 226.072 49.416C225.624 50.2693 225.4 51.24 225.4 52.328C225.4 53.416 225.624 54.3973 226.072 55.272C226.542 56.1253 227.171 56.7973 227.96 57.288C228.771 57.7787 229.678 58.024 230.68 58.024ZM242.275 61V43.688H245.731V47.176L245.411 46.664C245.795 45.5333 246.413 44.7227 247.267 44.232C248.12 43.72 249.144 43.464 250.339 43.464H251.395V46.76H249.891C248.696 46.76 247.725 47.1333 246.979 47.88C246.253 48.6053 245.891 49.6507 245.891 51.016V61H242.275ZM252.908 61V43.688H256.364V47.432L255.916 46.856C256.279 45.6827 256.94 44.7973 257.9 44.2C258.86 43.6027 259.959 43.304 261.196 43.304C262.583 43.304 263.81 43.6773 264.876 44.424C265.964 45.1493 266.69 46.12 267.052 47.336L266.028 47.432C266.54 46.0453 267.319 45.0107 268.364 44.328C269.431 43.6453 270.647 43.304 272.012 43.304C273.207 43.304 274.284 43.5813 275.244 44.136C276.226 44.6907 277.004 45.4587 277.58 46.44C278.156 47.4213 278.444 48.5413 278.444 49.8V61H274.828V50.792C274.828 49.9173 274.668 49.1813 274.348 48.584C274.05 47.9653 273.623 47.496 273.068 47.176C272.535 46.8347 271.906 46.664 271.18 46.664C270.455 46.664 269.815 46.8347 269.26 47.176C268.706 47.496 268.268 47.9653 267.948 48.584C267.628 49.2027 267.468 49.9387 267.468 50.792V61H263.884V50.792C263.884 49.9173 263.724 49.1813 263.404 48.584C263.106 47.9653 262.679 47.496 262.124 47.176C261.591 46.8347 260.951 46.664 260.204 46.664C259.479 46.664 258.839 46.8347 258.284 47.176C257.73 47.496 257.292 47.9653 256.972 48.584C256.674 49.2027 256.524 49.9387 256.524 50.792V61H252.908ZM28.064 109V94.952H24.864V91.688H28.064V90.792C28.064 89.4907 28.3307 88.4027 28.864 87.528C29.3973 86.632 30.1333 85.9493 31.072 85.48C32.032 85.0107 33.1307 84.776 34.368 84.776C34.6027 84.776 34.8693 84.7973 35.168 84.84C35.4667 84.8613 35.712 84.8933 35.904 84.936V88.072C35.7333 88.0293 35.5413 88.008 35.328 88.008C35.1147 87.9867 34.944 87.976 34.816 87.976C33.856 87.976 33.088 88.2 32.512 88.648C31.936 89.0747 31.648 89.7893 31.648 90.792V91.688H35.616V94.952H31.648V109H28.064ZM45.754 109.384C44.09 109.384 42.5647 108.989 41.178 108.2C39.8127 107.411 38.7247 106.333 37.914 104.968C37.1033 103.603 36.698 102.056 36.698 100.328C36.698 98.5787 37.1033 97.032 37.914 95.688C38.7247 94.3227 39.8127 93.256 41.178 92.488C42.5433 91.6987 44.0687 91.304 45.754 91.304C47.4607 91.304 48.986 91.6987 50.33 92.488C51.6953 93.256 52.7727 94.3227 53.562 95.688C54.3727 97.032 54.778 98.5787 54.778 100.328C54.778 102.077 54.3727 103.635 53.562 105C52.7513 106.365 51.6633 107.443 50.298 108.232C48.9327 109 47.418 109.384 45.754 109.384ZM45.754 106.024C46.778 106.024 47.6847 105.779 48.474 105.288C49.2633 104.797 49.882 104.125 50.33 103.272C50.7993 102.397 51.034 101.416 51.034 100.328C51.034 99.24 50.7993 98.2693 50.33 97.416C49.882 96.5627 49.2633 95.8907 48.474 95.4C47.6847 94.9093 46.778 94.664 45.754 94.664C44.7513 94.664 43.8447 94.9093 43.034 95.4C42.2447 95.8907 41.6153 96.5627 41.146 97.416C40.698 98.2693 40.474 99.24 40.474 100.328C40.474 101.416 40.698 102.397 41.146 103.272C41.6153 104.125 42.2447 104.797 43.034 105.288C43.8447 105.779 44.7513 106.024 45.754 106.024ZM57.3482 109V91.688H60.8043V95.176L60.4843 94.664C60.8683 93.5333 61.4869 92.7227 62.3403 92.232C63.1936 91.72 64.2176 91.464 65.4123 91.464H66.4683V94.76H64.9643C63.7696 94.76 62.7989 95.1333 62.0523 95.88C61.3269 96.6053 60.9643 97.6507 60.9643 99.016V109H57.3482ZM84.0718 109.384C82.3864 109.384 80.8184 109.075 79.3678 108.456C77.9384 107.837 76.6904 106.984 75.6238 105.896C74.5784 104.787 73.7571 103.485 73.1597 101.992C72.5624 100.499 72.2637 98.856 72.2637 97.064C72.2637 95.2933 72.5517 93.6613 73.1277 92.168C73.7251 90.6533 74.5571 89.352 75.6238 88.264C76.6904 87.1547 77.9384 86.3013 79.3678 85.704C80.7971 85.0853 82.3651 84.776 84.0718 84.776C85.7571 84.776 87.2611 85.064 88.5837 85.64C89.9278 86.216 91.0584 86.9733 91.9757 87.912C92.8931 88.8293 93.5544 89.832 93.9598 90.92L90.5678 92.52C90.0558 91.24 89.2344 90.2053 88.1038 89.416C86.9944 88.6053 85.6504 88.2 84.0718 88.2C82.4931 88.2 81.0958 88.5733 79.8798 89.32C78.6638 90.0667 77.7144 91.1013 77.0318 92.424C76.3704 93.7467 76.0398 95.2933 76.0398 97.064C76.0398 98.8347 76.3704 100.392 77.0318 101.736C77.7144 103.059 78.6638 104.093 79.8798 104.84C81.0958 105.565 82.4931 105.928 84.0718 105.928C85.6504 105.928 86.9944 105.533 88.1038 104.744C89.2344 103.955 90.0558 102.92 90.5678 101.64L93.9598 103.24C93.5544 104.307 92.8931 105.309 91.9757 106.248C91.0584 107.187 89.9278 107.944 88.5837 108.52C87.2611 109.096 85.7571 109.384 84.0718 109.384ZM101.402 109.384C100.229 109.384 99.1942 109.181 98.2982 108.776C97.4236 108.349 96.7409 107.773 96.2502 107.048C95.7596 106.301 95.5142 105.427 95.5142 104.424C95.5142 103.485 95.7169 102.643 96.1222 101.896C96.5489 101.149 97.1996 100.52 98.0742 100.008C98.9489 99.496 100.048 99.1333 101.37 98.92L107.386 97.928V100.776L102.074 101.704C101.114 101.875 100.41 102.184 99.9622 102.632C99.5142 103.059 99.2902 103.613 99.2902 104.296C99.2902 104.957 99.5356 105.501 100.026 105.928C100.538 106.333 101.189 106.536 101.978 106.536C102.96 106.536 103.813 106.323 104.538 105.896C105.285 105.469 105.861 104.904 106.266 104.2C106.672 103.475 106.874 102.675 106.874 101.8V97.352C106.874 96.4987 106.554 95.8053 105.914 95.272C105.296 94.7173 104.464 94.44 103.418 94.44C102.458 94.44 101.616 94.696 100.89 95.208C100.186 95.6987 99.6636 96.3387 99.3222 97.128L96.3142 95.624C96.6342 94.7707 97.1569 94.024 97.8822 93.384C98.6076 92.7227 99.4502 92.2107 100.41 91.848C101.392 91.4853 102.426 91.304 103.514 91.304C104.88 91.304 106.085 91.56 107.13 92.072C108.197 92.584 109.018 93.2987 109.594 94.216C110.192 95.112 110.49 96.1573 110.49 97.352V109H107.034V105.864L107.77 105.96C107.365 106.664 106.842 107.272 106.202 107.784C105.584 108.296 104.869 108.691 104.058 108.968C103.269 109.245 102.384 109.384 101.402 109.384ZM113.758 109V91.688H117.214V95.176L116.894 94.664C117.278 93.5333 117.897 92.7227 118.75 92.232C119.604 91.72 120.628 91.464 121.822 91.464H122.878V94.76H121.374C120.18 94.76 119.209 95.1333 118.462 95.88C117.737 96.6053 117.374 97.6507 117.374 99.016V109H113.758ZM129.378 109V85.16H138.05C139.65 85.16 141.058 85.4587 142.274 86.056C143.49 86.632 144.439 87.4853 145.122 88.616C145.826 89.7253 146.178 91.0587 146.178 92.616C146.178 94.2587 145.762 95.6667 144.93 96.84C144.119 98.0133 143.02 98.8667 141.634 99.4L147.138 109H142.85L136.994 98.6L139.458 100.04H133.154V109H129.378ZM133.154 96.68H138.114C138.988 96.68 139.746 96.5093 140.386 96.168C141.026 95.8267 141.516 95.3573 141.858 94.76C142.22 94.1413 142.402 93.416 142.402 92.584C142.402 91.752 142.22 91.0373 141.858 90.44C141.516 89.8213 141.026 89.352 140.386 89.032C139.746 88.6907 138.988 88.52 138.114 88.52H133.154V96.68ZM156.163 109.384C154.435 109.384 152.899 108.989 151.555 108.2C150.232 107.389 149.197 106.301 148.451 104.936C147.704 103.549 147.331 102.003 147.331 100.296C147.331 98.5467 147.704 97 148.451 95.656C149.219 94.312 150.243 93.256 151.523 92.488C152.803 91.6987 154.253 91.304 155.875 91.304C157.176 91.304 158.339 91.528 159.363 91.976C160.387 92.424 161.251 93.0427 161.955 93.832C162.659 94.6 163.192 95.4853 163.555 96.488C163.939 97.4907 164.131 98.5573 164.131 99.688C164.131 99.9653 164.12 100.253 164.099 100.552C164.077 100.851 164.035 101.128 163.971 101.384H150.179V98.504H161.923L160.195 99.816C160.408 98.7707 160.333 97.8427 159.971 97.032C159.629 96.2 159.096 95.5493 158.371 95.08C157.667 94.5893 156.835 94.344 155.875 94.344C154.915 94.344 154.061 94.5893 153.315 95.08C152.568 95.5493 151.992 96.232 151.587 97.128C151.181 98.0027 151.021 99.0693 151.107 100.328C151 101.501 151.16 102.525 151.587 103.4C152.035 104.275 152.653 104.957 153.443 105.448C154.253 105.939 155.171 106.184 156.195 106.184C157.24 106.184 158.125 105.949 158.851 105.48C159.597 105.011 160.184 104.403 160.611 103.656L163.555 105.096C163.213 105.907 162.68 106.643 161.955 107.304C161.251 107.944 160.397 108.456 159.395 108.84C158.413 109.203 157.336 109.384 156.163 109.384ZM166.699 109V91.688H170.155V95.08L169.739 94.632C170.166 93.544 170.849 92.7227 171.787 92.168C172.726 91.592 173.814 91.304 175.051 91.304C176.331 91.304 177.462 91.5813 178.443 92.136C179.425 92.6907 180.193 93.4587 180.747 94.44C181.302 95.4213 181.579 96.552 181.579 97.832V109H177.995V98.792C177.995 97.9173 177.835 97.1813 177.515 96.584C177.195 95.9653 176.737 95.496 176.139 95.176C175.563 94.8347 174.902 94.664 174.155 94.664C173.409 94.664 172.737 94.8347 172.139 95.176C171.563 95.496 171.115 95.9653 170.795 96.584C170.475 97.2027 170.315 97.9387 170.315 98.792V109H166.699ZM191.978 109.192C190.164 109.192 188.756 108.68 187.754 107.656C186.751 106.632 186.25 105.192 186.25 103.336V94.952H183.21V91.688H183.69C184.5 91.688 185.13 91.4533 185.578 90.984C186.026 90.5147 186.25 89.8747 186.25 89.064V87.72H189.866V91.688H193.802V94.952H189.866V103.176C189.866 103.773 189.962 104.285 190.154 104.712C190.346 105.117 190.655 105.437 191.082 105.672C191.508 105.885 192.063 105.992 192.746 105.992C192.916 105.992 193.108 105.981 193.322 105.96C193.535 105.939 193.738 105.917 193.93 105.896V109C193.631 109.043 193.3 109.085 192.938 109.128C192.575 109.171 192.255 109.192 191.978 109.192ZM201.526 109.384C200.353 109.384 199.318 109.181 198.422 108.776C197.547 108.349 196.865 107.773 196.374 107.048C195.883 106.301 195.638 105.427 195.638 104.424C195.638 103.485 195.841 102.643 196.246 101.896C196.673 101.149 197.323 100.52 198.198 100.008C199.073 99.496 200.171 99.1333 201.494 98.92L207.51 97.928V100.776L202.198 101.704C201.238 101.875 200.534 102.184 200.086 102.632C199.638 103.059 199.414 103.613 199.414 104.296C199.414 104.957 199.659 105.501 200.15 105.928C200.662 106.333 201.313 106.536 202.102 106.536C203.083 106.536 203.937 106.323 204.662 105.896C205.409 105.469 205.985 104.904 206.39 104.2C206.795 103.475 206.998 102.675 206.998 101.8V97.352C206.998 96.4987 206.678 95.8053 206.038 95.272C205.419 94.7173 204.587 94.44 203.542 94.44C202.582 94.44 201.739 94.696 201.014 95.208C200.31 95.6987 199.787 96.3387 199.446 97.128L196.438 95.624C196.758 94.7707 197.281 94.024 198.006 93.384C198.731 92.7227 199.574 92.2107 200.534 91.848C201.515 91.4853 202.55 91.304 203.638 91.304C205.003 91.304 206.209 91.56 207.254 92.072C208.321 92.584 209.142 93.2987 209.718 94.216C210.315 95.112 210.614 96.1573 210.614 97.352V109H207.158V105.864L207.894 105.96C207.489 106.664 206.966 107.272 206.326 107.784C205.707 108.296 204.993 108.691 204.182 108.968C203.393 109.245 202.507 109.384 201.526 109.384ZM213.882 109V84.776H217.498V109H213.882Z" fill="white"/>
<path d="M25.328 155V143.08H33.088V144.52H26.896V148.296H32.768V149.736H26.896V153.56H33.088V155H25.328ZM37.0631 155.192C36.4978 155.192 35.9965 155.091 35.5591 154.888C35.1325 154.675 34.7965 154.387 34.5511 154.024C34.3058 153.651 34.1831 153.224 34.1831 152.744C34.1831 152.285 34.2791 151.875 34.4711 151.512C34.6738 151.139 34.9831 150.824 35.3991 150.568C35.8258 150.312 36.3591 150.131 36.9991 150.024L40.1991 149.496V150.744L37.3351 151.224C36.7805 151.32 36.3751 151.496 36.1191 151.752C35.8738 152.008 35.7511 152.323 35.7511 152.696C35.7511 153.048 35.8898 153.341 36.1671 153.576C36.4551 153.811 36.8125 153.928 37.2391 153.928C37.7831 153.928 38.2525 153.816 38.6471 153.592C39.0525 153.357 39.3671 153.043 39.5911 152.648C39.8258 152.253 39.9431 151.816 39.9431 151.336V149.144C39.9431 148.675 39.7671 148.296 39.4151 148.008C39.0738 147.709 38.6205 147.56 38.0551 147.56C37.5645 147.56 37.1271 147.688 36.7431 147.944C36.3698 148.189 36.0925 148.52 35.9111 148.936L34.6151 148.264C34.7751 147.869 35.0311 147.517 35.3831 147.208C35.7351 146.888 36.1458 146.637 36.6151 146.456C37.0845 146.275 37.5751 146.184 38.0871 146.184C38.7485 146.184 39.3298 146.312 39.8311 146.568C40.3325 146.813 40.7218 147.16 40.9991 147.608C41.2871 148.045 41.4311 148.557 41.4311 149.144V155H39.9751V153.368L40.2471 153.464C40.0658 153.805 39.8205 154.104 39.5111 154.36C39.2018 154.616 38.8391 154.819 38.4231 154.968C38.0071 155.117 37.5538 155.192 37.0631 155.192ZM46.5063 155.192C45.6423 155.192 44.8903 154.979 44.2503 154.552C43.6103 154.125 43.1569 153.549 42.8903 152.824L44.0743 152.248C44.3196 152.76 44.6556 153.165 45.0823 153.464C45.5089 153.763 45.9836 153.912 46.5063 153.912C46.9756 153.912 47.3649 153.8 47.6743 153.576C47.9836 153.352 48.1383 153.059 48.1383 152.696C48.1383 152.44 48.0636 152.237 47.9143 152.088C47.7756 151.928 47.6049 151.805 47.4023 151.72C47.1996 151.624 47.0129 151.555 46.8423 151.512L45.5463 151.144C44.7676 150.92 44.1969 150.6 43.8343 150.184C43.4823 149.768 43.3063 149.283 43.3063 148.728C43.3063 148.216 43.4343 147.773 43.6903 147.4C43.9569 147.016 44.3143 146.717 44.7623 146.504C45.2209 146.291 45.7329 146.184 46.2983 146.184C47.0556 146.184 47.7329 146.376 48.3303 146.76C48.9383 147.144 49.3703 147.683 49.6263 148.376L48.4103 148.936C48.2183 148.488 47.9303 148.136 47.5463 147.88C47.1623 147.613 46.7303 147.48 46.2503 147.48C45.8129 147.48 45.4663 147.592 45.2103 147.816C44.9543 148.029 44.8263 148.301 44.8263 148.632C44.8263 148.877 44.8903 149.08 45.0183 149.24C45.1463 149.389 45.3009 149.507 45.4823 149.592C45.6636 149.667 45.8396 149.731 46.0103 149.784L47.4183 150.2C48.1223 150.403 48.6663 150.717 49.0503 151.144C49.4449 151.571 49.6423 152.083 49.6423 152.68C49.6423 153.16 49.5089 153.592 49.2423 153.976C48.9756 154.36 48.6076 154.659 48.1383 154.872C47.6689 155.085 47.1249 155.192 46.5063 155.192ZM55.2381 155.192C54.4061 155.192 53.6648 154.995 53.0141 154.6C52.3635 154.205 51.8515 153.667 51.4781 152.984C51.1048 152.291 50.9181 151.517 50.9181 150.664C50.9181 149.8 51.0995 149.032 51.4621 148.36C51.8355 147.688 52.3368 147.16 52.9661 146.776C53.6061 146.381 54.3208 146.184 55.1101 146.184C55.7501 146.184 56.3155 146.301 56.8061 146.536C57.3075 146.76 57.7288 147.069 58.0701 147.464C58.4221 147.848 58.6888 148.291 58.8701 148.792C59.0621 149.283 59.1581 149.795 59.1581 150.328C59.1581 150.445 59.1475 150.579 59.1261 150.728C59.1155 150.867 59.0995 151 59.0781 151.128H52.0061V149.848H58.2141L57.5101 150.424C57.6061 149.869 57.5528 149.373 57.3501 148.936C57.1475 148.499 56.8488 148.152 56.4541 147.896C56.0595 147.64 55.6115 147.512 55.1101 147.512C54.6088 147.512 54.1501 147.64 53.7341 147.896C53.3181 148.152 52.9928 148.52 52.7581 149C52.5341 149.469 52.4435 150.029 52.4861 150.68C52.4435 151.309 52.5395 151.864 52.7741 152.344C53.0195 152.813 53.3608 153.181 53.7981 153.448C54.2461 153.704 54.7315 153.832 55.2541 153.832C55.8301 153.832 56.3155 153.699 56.7101 153.432C57.1048 153.165 57.4248 152.824 57.6701 152.408L58.9181 153.048C58.7475 153.443 58.4808 153.805 58.1181 154.136C57.7661 154.456 57.3448 154.712 56.8541 154.904C56.3741 155.096 55.8355 155.192 55.2381 155.192ZM67.3199 155.192C66.4879 155.192 65.7359 155 65.0639 154.616C64.3919 154.221 63.8585 153.683 63.4639 153C63.0692 152.317 62.8719 151.544 62.8719 150.68C62.8719 149.816 63.0639 149.048 63.4479 148.376C63.8425 147.704 64.3759 147.171 65.0479 146.776C65.7199 146.381 66.4772 146.184 67.3199 146.184C68.1519 146.184 68.9039 146.381 69.5759 146.776C70.2479 147.16 70.7759 147.688 71.1599 148.36C71.5545 149.032 71.7519 149.805 71.7519 150.68C71.7519 151.555 71.5492 152.333 71.1439 153.016C70.7385 153.688 70.1999 154.221 69.5279 154.616C68.8665 155 68.1305 155.192 67.3199 155.192ZM67.3199 153.752C67.8532 153.752 68.3332 153.619 68.7599 153.352C69.1972 153.085 69.5385 152.717 69.7839 152.248C70.0399 151.779 70.1679 151.256 70.1679 150.68C70.1679 150.093 70.0399 149.576 69.7839 149.128C69.5385 148.669 69.1972 148.307 68.7599 148.04C68.3332 147.763 67.8532 147.624 67.3199 147.624C66.7759 147.624 66.2852 147.763 65.8479 148.04C65.4212 148.307 65.0799 148.669 64.8239 149.128C64.5679 149.576 64.4399 150.093 64.4399 150.68C64.4399 151.256 64.5679 151.779 64.8239 152.248C65.0799 152.717 65.4212 153.085 65.8479 153.352C66.2852 153.619 66.7759 153.752 67.3199 153.752ZM74.019 155V147.8H72.371V146.376H74.019V145.768C74.019 145.149 74.1523 144.627 74.419 144.2C74.6963 143.773 75.059 143.448 75.507 143.224C75.9657 143 76.4723 142.888 77.027 142.888C77.1443 142.888 77.2723 142.899 77.411 142.92C77.5603 142.931 77.683 142.947 77.779 142.968V144.296C77.6937 144.275 77.5923 144.264 77.475 144.264C77.3577 144.253 77.267 144.248 77.203 144.248C76.7123 144.248 76.307 144.365 75.987 144.6C75.6777 144.835 75.523 145.224 75.523 145.768V146.376H77.571V147.8H75.523V155H74.019ZM85.512 155.192C84.7013 155.192 83.9707 154.995 83.32 154.6C82.68 154.205 82.1733 153.667 81.8 152.984C81.4267 152.301 81.24 151.539 81.24 150.696C81.24 149.832 81.4267 149.064 81.8 148.392C82.1733 147.709 82.68 147.171 83.32 146.776C83.9707 146.381 84.7013 146.184 85.512 146.184C86.2267 146.184 86.8613 146.339 87.416 146.648C87.9707 146.947 88.408 147.352 88.728 147.864L88.488 148.232V142.888H89.992V155H88.536V153.16L88.728 153.416C88.4293 153.981 87.992 154.419 87.416 154.728C86.8507 155.037 86.216 155.192 85.512 155.192ZM85.64 153.752C86.184 153.752 86.6693 153.619 87.096 153.352C87.5227 153.085 87.8587 152.723 88.104 152.264C88.36 151.795 88.488 151.272 88.488 150.696C88.488 150.109 88.36 149.587 88.104 149.128C87.8587 148.659 87.5227 148.291 87.096 148.024C86.6693 147.757 86.184 147.624 85.64 147.624C85.1067 147.624 84.6213 147.763 84.184 148.04C83.7573 148.307 83.4213 148.669 83.176 149.128C82.9307 149.576 82.808 150.099 82.808 150.696C82.808 151.272 82.9307 151.795 83.176 152.264C83.4213 152.723 83.7573 153.085 84.184 153.352C84.6107 153.619 85.096 153.752 85.64 153.752ZM96.0711 155.192C95.2391 155.192 94.4871 155 93.8151 154.616C93.1431 154.221 92.6098 153.683 92.2151 153C91.8205 152.317 91.6231 151.544 91.6231 150.68C91.6231 149.816 91.8151 149.048 92.1991 148.376C92.5938 147.704 93.1271 147.171 93.7991 146.776C94.4711 146.381 95.2285 146.184 96.0711 146.184C96.9031 146.184 97.6551 146.381 98.3271 146.776C98.9991 147.16 99.5271 147.688 99.9111 148.36C100.306 149.032 100.503 149.805 100.503 150.68C100.503 151.555 100.3 152.333 99.8951 153.016C99.4898 153.688 98.9511 154.221 98.2791 154.616C97.6178 155 96.8818 155.192 96.0711 155.192ZM96.0711 153.752C96.6045 153.752 97.0845 153.619 97.5111 153.352C97.9485 153.085 98.2898 152.717 98.5351 152.248C98.7911 151.779 98.9191 151.256 98.9191 150.68C98.9191 150.093 98.7911 149.576 98.5351 149.128C98.2898 148.669 97.9485 148.307 97.5111 148.04C97.0845 147.763 96.6045 147.624 96.0711 147.624C95.5271 147.624 95.0365 147.763 94.5991 148.04C94.1725 148.307 93.8311 148.669 93.5751 149.128C93.3191 149.576 93.1911 150.093 93.1911 150.68C93.1911 151.256 93.3191 151.779 93.5751 152.248C93.8311 152.717 94.1725 153.085 94.5991 153.352C95.0365 153.619 95.5271 153.752 96.0711 153.752ZM102.124 155V146.376H103.612V155H102.124ZM102.124 145V143.08H103.612V145H102.124ZM105.601 155V146.376H107.057V148.056L106.817 147.912C107.03 147.368 107.371 146.947 107.841 146.648C108.321 146.339 108.881 146.184 109.521 146.184C110.139 146.184 110.689 146.323 111.169 146.6C111.659 146.877 112.043 147.261 112.321 147.752C112.609 148.243 112.753 148.797 112.753 149.416V155H111.249V149.896C111.249 149.416 111.163 149.011 110.993 148.68C110.822 148.349 110.577 148.093 110.257 147.912C109.947 147.72 109.59 147.624 109.185 147.624C108.779 147.624 108.417 147.72 108.097 147.912C107.787 148.093 107.542 148.355 107.361 148.696C107.179 149.027 107.089 149.427 107.089 149.896V155H105.601ZM118.674 158.52C118.066 158.52 117.501 158.424 116.978 158.232C116.466 158.04 116.023 157.773 115.65 157.432C115.287 157.101 115.01 156.712 114.818 156.264L116.21 155.624C116.359 156.029 116.642 156.371 117.058 156.648C117.485 156.936 118.018 157.08 118.658 157.08C119.149 157.08 119.591 156.984 119.986 156.792C120.391 156.611 120.711 156.333 120.946 155.96C121.181 155.597 121.298 155.155 121.298 154.632V152.696L121.57 152.984C121.271 153.571 120.839 154.019 120.274 154.328C119.719 154.637 119.106 154.792 118.434 154.792C117.623 154.792 116.898 154.605 116.258 154.232C115.618 153.848 115.117 153.331 114.754 152.68C114.391 152.019 114.21 151.288 114.21 150.488C114.21 149.677 114.391 148.947 114.754 148.296C115.117 147.645 115.613 147.133 116.242 146.76C116.882 146.376 117.607 146.184 118.418 146.184C119.09 146.184 119.698 146.339 120.242 146.648C120.797 146.947 121.239 147.363 121.57 147.896L121.346 148.296V146.376H122.802V154.632C122.802 155.379 122.626 156.045 122.274 156.632C121.922 157.219 121.431 157.677 120.802 158.008C120.183 158.349 119.474 158.52 118.674 158.52ZM118.562 153.352C119.074 153.352 119.533 153.224 119.938 152.968C120.354 152.712 120.685 152.371 120.93 151.944C121.175 151.507 121.298 151.021 121.298 150.488C121.298 149.965 121.175 149.485 120.93 149.048C120.685 148.611 120.354 148.264 119.938 148.008C119.533 147.752 119.074 147.624 118.562 147.624C118.039 147.624 117.565 147.752 117.138 148.008C116.711 148.264 116.375 148.611 116.13 149.048C115.895 149.475 115.778 149.955 115.778 150.488C115.778 151.021 115.895 151.507 116.13 151.944C116.375 152.371 116.706 152.712 117.122 152.968C117.549 153.224 118.029 153.352 118.562 153.352ZM129.762 155.192C129.197 155.192 128.696 155.091 128.258 154.888C127.832 154.675 127.496 154.387 127.25 154.024C127.005 153.651 126.882 153.224 126.882 152.744C126.882 152.285 126.978 151.875 127.17 151.512C127.373 151.139 127.682 150.824 128.098 150.568C128.525 150.312 129.058 150.131 129.698 150.024L132.898 149.496V150.744L130.034 151.224C129.48 151.32 129.074 151.496 128.818 151.752C128.573 152.008 128.45 152.323 128.45 152.696C128.45 153.048 128.589 153.341 128.866 153.576C129.154 153.811 129.512 153.928 129.938 153.928C130.482 153.928 130.952 153.816 131.346 153.592C131.752 153.357 132.066 153.043 132.29 152.648C132.525 152.253 132.642 151.816 132.642 151.336V149.144C132.642 148.675 132.466 148.296 132.114 148.008C131.773 147.709 131.32 147.56 130.754 147.56C130.264 147.56 129.826 147.688 129.442 147.944C129.069 148.189 128.792 148.52 128.61 148.936L127.314 148.264C127.474 147.869 127.73 147.517 128.082 147.208C128.434 146.888 128.845 146.637 129.314 146.456C129.784 146.275 130.274 146.184 130.786 146.184C131.448 146.184 132.029 146.312 132.53 146.568C133.032 146.813 133.421 147.16 133.698 147.608C133.986 148.045 134.13 148.557 134.13 149.144V155H132.674V153.368L132.946 153.464C132.765 153.805 132.52 154.104 132.21 154.36C131.901 154.616 131.538 154.819 131.122 154.968C130.706 155.117 130.253 155.192 129.762 155.192ZM142.563 155.192C141.721 155.192 140.969 154.995 140.307 154.6C139.657 154.205 139.145 153.667 138.771 152.984C138.398 152.301 138.211 151.533 138.211 150.68C138.211 149.816 138.398 149.048 138.771 148.376C139.145 147.704 139.657 147.171 140.307 146.776C140.969 146.381 141.721 146.184 142.563 146.184C143.129 146.184 143.657 146.285 144.147 146.488C144.638 146.691 145.07 146.963 145.443 147.304C145.817 147.645 146.089 148.045 146.259 148.504L144.931 149.144C144.729 148.696 144.419 148.333 144.003 148.056C143.587 147.768 143.107 147.624 142.563 147.624C142.041 147.624 141.566 147.757 141.139 148.024C140.723 148.291 140.393 148.653 140.147 149.112C139.902 149.571 139.779 150.099 139.779 150.696C139.779 151.272 139.902 151.795 140.147 152.264C140.393 152.723 140.723 153.085 141.139 153.352C141.566 153.619 142.041 153.752 142.563 153.752C143.107 153.752 143.587 153.613 144.003 153.336C144.419 153.048 144.729 152.669 144.931 152.2L146.259 152.872C146.089 153.32 145.817 153.72 145.443 154.072C145.07 154.413 144.638 154.685 144.147 154.888C143.657 155.091 143.129 155.192 142.563 155.192ZM150.302 155.192C149.737 155.192 149.236 155.091 148.798 154.888C148.372 154.675 148.036 154.387 147.79 154.024C147.545 153.651 147.422 153.224 147.422 152.744C147.422 152.285 147.518 151.875 147.71 151.512C147.913 151.139 148.222 150.824 148.638 150.568C149.065 150.312 149.598 150.131 150.238 150.024L153.438 149.496V150.744L150.574 151.224C150.02 151.32 149.614 151.496 149.358 151.752C149.113 152.008 148.99 152.323 148.99 152.696C148.99 153.048 149.129 153.341 149.406 153.576C149.694 153.811 150.052 153.928 150.478 153.928C151.022 153.928 151.492 153.816 151.886 153.592C152.292 153.357 152.606 153.043 152.83 152.648C153.065 152.253 153.182 151.816 153.182 151.336V149.144C153.182 148.675 153.006 148.296 152.654 148.008C152.313 147.709 151.86 147.56 151.294 147.56C150.804 147.56 150.366 147.688 149.982 147.944C149.609 148.189 149.332 148.52 149.15 148.936L147.854 148.264C148.014 147.869 148.27 147.517 148.622 147.208C148.974 146.888 149.385 146.637 149.854 146.456C150.324 146.275 150.814 146.184 151.326 146.184C151.988 146.184 152.569 146.312 153.07 146.568C153.572 146.813 153.961 147.16 154.238 147.608C154.526 148.045 154.67 148.557 154.67 149.144V155H153.214V153.368L153.486 153.464C153.305 153.805 153.06 154.104 152.75 154.36C152.441 154.616 152.078 154.819 151.662 154.968C151.246 155.117 150.793 155.192 150.302 155.192ZM156.658 155V146.376H158.114V147.96L157.954 147.736C158.156 147.245 158.466 146.883 158.882 146.648C159.298 146.403 159.804 146.28 160.402 146.28H160.93V147.688H160.178C159.57 147.688 159.079 147.88 158.706 148.264C158.332 148.637 158.146 149.171 158.146 149.864V155H156.658ZM164.377 155V146.376H165.833V147.96L165.673 147.736C165.876 147.245 166.185 146.883 166.601 146.648C167.017 146.403 167.524 146.28 168.121 146.28H168.649V147.688H167.897C167.289 147.688 166.798 147.88 166.425 148.264C166.052 148.637 165.865 149.171 165.865 149.864V155H164.377ZM173.619 155.192C172.787 155.192 172.045 154.995 171.395 154.6C170.744 154.205 170.232 153.667 169.859 152.984C169.485 152.291 169.299 151.517 169.299 150.664C169.299 149.8 169.48 149.032 169.843 148.36C170.216 147.688 170.717 147.16 171.347 146.776C171.987 146.381 172.701 146.184 173.491 146.184C174.131 146.184 174.696 146.301 175.187 146.536C175.688 146.76 176.109 147.069 176.451 147.464C176.803 147.848 177.069 148.291 177.251 148.792C177.443 149.283 177.539 149.795 177.539 150.328C177.539 150.445 177.528 150.579 177.507 150.728C177.496 150.867 177.48 151 177.459 151.128H170.387V149.848H176.595L175.891 150.424C175.987 149.869 175.933 149.373 175.731 148.936C175.528 148.499 175.229 148.152 174.835 147.896C174.44 147.64 173.992 147.512 173.491 147.512C172.989 147.512 172.531 147.64 172.115 147.896C171.699 148.152 171.373 148.52 171.139 149C170.915 149.469 170.824 150.029 170.867 150.68C170.824 151.309 170.92 151.864 171.155 152.344C171.4 152.813 171.741 153.181 172.179 153.448C172.627 153.704 173.112 153.832 173.635 153.832C174.211 153.832 174.696 153.699 175.091 153.432C175.485 153.165 175.805 152.824 176.051 152.408L177.299 153.048C177.128 153.443 176.861 153.805 176.499 154.136C176.147 154.456 175.725 154.712 175.235 154.904C174.755 155.096 174.216 155.192 173.619 155.192ZM179.159 155V146.376H180.615V148.056L180.375 147.912C180.588 147.368 180.93 146.947 181.399 146.648C181.879 146.339 182.439 146.184 183.079 146.184C183.698 146.184 184.247 146.323 184.727 146.6C185.218 146.877 185.602 147.261 185.879 147.752C186.167 148.243 186.311 148.797 186.311 149.416V155H184.807V149.896C184.807 149.416 184.722 149.011 184.551 148.68C184.38 148.349 184.135 148.093 183.815 147.912C183.506 147.72 183.148 147.624 182.743 147.624C182.338 147.624 181.975 147.72 181.655 147.912C181.346 148.093 181.1 148.355 180.919 148.696C180.738 149.027 180.647 149.427 180.647 149.896V155H179.159ZM191.624 155.096C190.781 155.096 190.131 154.856 189.672 154.376C189.224 153.896 189 153.219 189 152.344V147.8H187.432V146.376H187.752C188.136 146.376 188.44 146.259 188.664 146.024C188.888 145.789 189 145.48 189 145.096V144.392H190.488V146.376H192.424V147.8H190.488V152.296C190.488 152.584 190.531 152.835 190.616 153.048C190.712 153.261 190.867 153.432 191.08 153.56C191.293 153.677 191.576 153.736 191.928 153.736C192.003 153.736 192.093 153.731 192.2 153.72C192.317 153.709 192.424 153.699 192.52 153.688V155C192.381 155.032 192.227 155.053 192.056 155.064C191.885 155.085 191.741 155.096 191.624 155.096ZM196.563 155.192C195.997 155.192 195.496 155.091 195.059 154.888C194.632 154.675 194.296 154.387 194.051 154.024C193.805 153.651 193.683 153.224 193.683 152.744C193.683 152.285 193.779 151.875 193.971 151.512C194.173 151.139 194.483 150.824 194.899 150.568C195.325 150.312 195.859 150.131 196.499 150.024L199.699 149.496V150.744L196.835 151.224C196.28 151.32 195.875 151.496 195.619 151.752C195.373 152.008 195.251 152.323 195.251 152.696C195.251 153.048 195.389 153.341 195.667 153.576C195.955 153.811 196.312 153.928 196.739 153.928C197.283 153.928 197.752 153.816 198.147 153.592C198.552 153.357 198.867 153.043 199.091 152.648C199.325 152.253 199.443 151.816 199.443 151.336V149.144C199.443 148.675 199.267 148.296 198.915 148.008C198.573 147.709 198.12 147.56 197.555 147.56C197.064 147.56 196.627 147.688 196.243 147.944C195.869 148.189 195.592 148.52 195.411 148.936L194.115 148.264C194.275 147.869 194.531 147.517 194.883 147.208C195.235 146.888 195.645 146.637 196.115 146.456C196.584 146.275 197.075 146.184 197.587 146.184C198.248 146.184 198.829 146.312 199.331 146.568C199.832 146.813 200.221 147.16 200.499 147.608C200.787 148.045 200.931 148.557 200.931 149.144V155H199.475V153.368L199.747 153.464C199.565 153.805 199.32 154.104 199.011 154.36C198.701 154.616 198.339 154.819 197.923 154.968C197.507 155.117 197.053 155.192 196.563 155.192ZM202.918 155V142.888H204.406V155H202.918ZM211.928 155.192C211.064 155.192 210.312 154.979 209.672 154.552C209.032 154.125 208.579 153.549 208.312 152.824L209.496 152.248C209.741 152.76 210.077 153.165 210.504 153.464C210.931 153.763 211.405 153.912 211.928 153.912C212.397 153.912 212.787 153.8 213.096 153.576C213.405 153.352 213.56 153.059 213.56 152.696C213.56 152.44 213.485 152.237 213.336 152.088C213.197 151.928 213.027 151.805 212.824 151.72C212.621 151.624 212.435 151.555 212.264 151.512L210.968 151.144C210.189 150.92 209.619 150.6 209.256 150.184C208.904 149.768 208.728 149.283 208.728 148.728C208.728 148.216 208.856 147.773 209.112 147.4C209.379 147.016 209.736 146.717 210.184 146.504C210.643 146.291 211.155 146.184 211.72 146.184C212.477 146.184 213.155 146.376 213.752 146.76C214.36 147.144 214.792 147.683 215.048 148.376L213.832 148.936C213.64 148.488 213.352 148.136 212.968 147.88C212.584 147.613 212.152 147.48 211.672 147.48C211.235 147.48 210.888 147.592 210.632 147.816C210.376 148.029 210.248 148.301 210.248 148.632C210.248 148.877 210.312 149.08 210.44 149.24C210.568 149.389 210.723 149.507 210.904 149.592C211.085 149.667 211.261 149.731 211.432 149.784L212.84 150.2C213.544 150.403 214.088 150.717 214.472 151.144C214.867 151.571 215.064 152.083 215.064 152.68C215.064 153.16 214.931 153.592 214.664 153.976C214.397 154.36 214.029 154.659 213.56 154.872C213.091 155.085 212.547 155.192 211.928 155.192ZM219.22 155.192C218.655 155.192 218.153 155.091 217.716 154.888C217.289 154.675 216.953 154.387 216.708 154.024C216.463 153.651 216.34 153.224 216.34 152.744C216.34 152.285 216.436 151.875 216.628 151.512C216.831 151.139 217.14 150.824 217.556 150.568C217.983 150.312 218.516 150.131 219.156 150.024L222.356 149.496V150.744L219.492 151.224C218.937 151.32 218.532 151.496 218.276 151.752C218.031 152.008 217.908 152.323 217.908 152.696C217.908 153.048 218.047 153.341 218.324 153.576C218.612 153.811 218.969 153.928 219.396 153.928C219.94 153.928 220.409 153.816 220.804 153.592C221.209 153.357 221.524 153.043 221.748 152.648C221.983 152.253 222.1 151.816 222.1 151.336V149.144C222.1 148.675 221.924 148.296 221.572 148.008C221.231 147.709 220.777 147.56 220.212 147.56C219.721 147.56 219.284 147.688 218.9 147.944C218.527 148.189 218.249 148.52 218.068 148.936L216.772 148.264C216.932 147.869 217.188 147.517 217.54 147.208C217.892 146.888 218.303 146.637 218.772 146.456C219.241 146.275 219.732 146.184 220.244 146.184C220.905 146.184 221.487 146.312 221.988 146.568C222.489 146.813 222.879 147.16 223.156 147.608C223.444 148.045 223.588 148.557 223.588 149.144V155H222.132V153.368L222.404 153.464C222.223 153.805 221.977 154.104 221.668 154.36C221.359 154.616 220.996 154.819 220.58 154.968C220.164 155.117 219.711 155.192 219.22 155.192ZM226.456 155V147.8H224.808V146.376H226.456V145.768C226.456 145.149 226.589 144.627 226.856 144.2C227.133 143.773 227.496 143.448 227.944 143.224C228.403 143 228.909 142.888 229.464 142.888C229.581 142.888 229.709 142.899 229.848 142.92C229.997 142.931 230.12 142.947 230.216 142.968V144.296C230.131 144.275 230.029 144.264 229.912 144.264C229.795 144.253 229.704 144.248 229.64 144.248C229.149 144.248 228.744 144.365 228.424 144.6C228.115 144.835 227.96 145.224 227.96 145.768V146.376H230.008V147.8H227.96V155H226.456ZM235.145 155.192C234.313 155.192 233.572 154.995 232.921 154.6C232.27 154.205 231.758 153.667 231.385 152.984C231.012 152.291 230.825 151.517 230.825 150.664C230.825 149.8 231.006 149.032 231.369 148.36C231.742 147.688 232.244 147.16 232.873 146.776C233.513 146.381 234.228 146.184 235.017 146.184C235.657 146.184 236.222 146.301 236.713 146.536C237.214 146.76 237.636 147.069 237.977 147.464C238.329 147.848 238.596 148.291 238.777 148.792C238.969 149.283 239.065 149.795 239.065 150.328C239.065 150.445 239.054 150.579 239.033 150.728C239.022 150.867 239.006 151 238.985 151.128H231.913V149.848H238.121L237.417 150.424C237.513 149.869 237.46 149.373 237.257 148.936C237.054 148.499 236.756 148.152 236.361 147.896C235.966 147.64 235.518 147.512 235.017 147.512C234.516 147.512 234.057 147.64 233.641 147.896C233.225 148.152 232.9 148.52 232.665 149C232.441 149.469 232.35 150.029 232.393 150.68C232.35 151.309 232.446 151.864 232.681 152.344C232.926 152.813 233.268 153.181 233.705 153.448C234.153 153.704 234.638 153.832 235.161 153.832C235.737 153.832 236.222 153.699 236.617 153.432C237.012 153.165 237.332 152.824 237.577 152.408L238.825 153.048C238.654 153.443 238.388 153.805 238.025 154.136C237.673 154.456 237.252 154.712 236.761 154.904C236.281 155.096 235.742 155.192 235.145 155.192ZM240.685 155V142.888H242.173V155H240.685ZM244.626 158.52C244.434 158.52 244.242 158.504 244.05 158.472C243.858 158.451 243.677 158.403 243.506 158.328V157C243.623 157.011 243.767 157.032 243.938 157.064C244.119 157.096 244.295 157.112 244.466 157.112C244.967 157.112 245.346 157 245.602 156.776C245.869 156.552 246.119 156.173 246.354 155.64L246.898 154.344L246.866 155.64L243.186 146.376H244.802L247.666 153.736H247.186L250.034 146.376H251.682L247.794 156.024C247.613 156.483 247.378 156.904 247.09 157.288C246.813 157.672 246.471 157.971 246.066 158.184C245.661 158.408 245.181 158.52 244.626 158.52ZM257.659 155.192C257.094 155.192 256.593 155.091 256.155 154.888C255.729 154.675 255.393 154.387 255.147 154.024C254.902 153.651 254.779 153.224 254.779 152.744C254.779 152.285 254.875 151.875 255.067 151.512C255.27 151.139 255.579 150.824 255.995 150.568C256.422 150.312 256.955 150.131 257.595 150.024L260.795 149.496V150.744L257.931 151.224C257.377 151.32 256.971 151.496 256.715 151.752C256.47 152.008 256.347 152.323 256.347 152.696C256.347 153.048 256.486 153.341 256.763 153.576C257.051 153.811 257.409 153.928 257.835 153.928C258.379 153.928 258.849 153.816 259.243 153.592C259.649 153.357 259.963 153.043 260.187 152.648C260.422 152.253 260.539 151.816 260.539 151.336V149.144C260.539 148.675 260.363 148.296 260.011 148.008C259.67 147.709 259.217 147.56 258.651 147.56C258.161 147.56 257.723 147.688 257.339 147.944C256.966 148.189 256.689 148.52 256.507 148.936L255.211 148.264C255.371 147.869 255.627 147.517 255.979 147.208C256.331 146.888 256.742 146.637 257.211 146.456C257.681 146.275 258.171 146.184 258.683 146.184C259.345 146.184 259.926 146.312 260.427 146.568C260.929 146.813 261.318 147.16 261.595 147.608C261.883 148.045 262.027 148.557 262.027 149.144V155H260.571V153.368L260.843 153.464C260.662 153.805 260.417 154.104 260.107 154.36C259.798 154.616 259.435 154.819 259.019 154.968C258.603 155.117 258.15 155.192 257.659 155.192ZM264.015 155V146.376H265.471V148.056L265.231 147.912C265.444 147.368 265.785 146.947 266.255 146.648C266.735 146.339 267.295 146.184 267.935 146.184C268.553 146.184 269.103 146.323 269.583 146.6C270.073 146.877 270.457 147.261 270.735 147.752C271.023 148.243 271.167 148.797 271.167 149.416V155H269.663V149.896C269.663 149.416 269.577 149.011 269.407 148.68C269.236 148.349 268.991 148.093 268.671 147.912C268.361 147.72 268.004 147.624 267.599 147.624C267.193 147.624 266.831 147.72 266.511 147.912C266.201 148.093 265.956 148.355 265.775 148.696C265.593 149.027 265.503 149.427 265.503 149.896V155H264.015ZM276.896 155.192C276.085 155.192 275.354 154.995 274.704 154.6C274.064 154.205 273.557 153.667 273.184 152.984C272.81 152.301 272.624 151.539 272.624 150.696C272.624 149.832 272.81 149.064 273.184 148.392C273.557 147.709 274.064 147.171 274.704 146.776C275.354 146.381 276.085 146.184 276.896 146.184C277.61 146.184 278.245 146.339 278.8 146.648C279.354 146.947 279.792 147.352 280.112 147.864L279.872 148.232V142.888H281.376V155H279.92V153.16L280.112 153.416C279.813 153.981 279.376 154.419 278.8 154.728C278.234 155.037 277.6 155.192 276.896 155.192ZM277.024 153.752C277.568 153.752 278.053 153.619 278.48 153.352C278.906 153.085 279.242 152.723 279.488 152.264C279.744 151.795 279.872 151.272 279.872 150.696C279.872 150.109 279.744 149.587 279.488 149.128C279.242 148.659 278.906 148.291 278.48 148.024C278.053 147.757 277.568 147.624 277.024 147.624C276.49 147.624 276.005 147.763 275.568 148.04C275.141 148.307 274.805 148.669 274.56 149.128C274.314 149.576 274.192 150.099 274.192 150.696C274.192 151.272 274.314 151.795 274.56 152.264C274.805 152.723 275.141 153.085 275.568 153.352C275.994 153.619 276.48 153.752 277.024 153.752ZM25.152 179V170.376H26.608V171.96L26.448 171.736C26.6507 171.245 26.96 170.883 27.376 170.648C27.792 170.403 28.2987 170.28 28.896 170.28H29.424V171.688H28.672C28.064 171.688 27.5733 171.88 27.2 172.264C26.8267 172.637 26.64 173.171 26.64 173.864V179H25.152ZM34.3938 179.192C33.5618 179.192 32.8204 178.995 32.1697 178.6C31.5191 178.205 31.0071 177.667 30.6337 176.984C30.2604 176.291 30.0737 175.517 30.0737 174.664C30.0737 173.8 30.2551 173.032 30.6177 172.36C30.9911 171.688 31.4924 171.16 32.1217 170.776C32.7617 170.381 33.4764 170.184 34.2657 170.184C34.9057 170.184 35.4711 170.301 35.9618 170.536C36.4631 170.76 36.8844 171.069 37.2257 171.464C37.5778 171.848 37.8444 172.291 38.0258 172.792C38.2178 173.283 38.3137 173.795 38.3137 174.328C38.3137 174.445 38.3031 174.579 38.2818 174.728C38.2711 174.867 38.2551 175 38.2337 175.128H31.1617V173.848H37.3698L36.6658 174.424C36.7618 173.869 36.7084 173.373 36.5058 172.936C36.3031 172.499 36.0044 172.152 35.6098 171.896C35.2151 171.64 34.7671 171.512 34.2657 171.512C33.7644 171.512 33.3058 171.64 32.8898 171.896C32.4737 172.152 32.1484 172.52 31.9137 173C31.6897 173.469 31.5991 174.029 31.6417 174.68C31.5991 175.309 31.6951 175.864 31.9297 176.344C32.1751 176.813 32.5164 177.181 32.9537 177.448C33.4018 177.704 33.8871 177.832 34.4097 177.832C34.9858 177.832 35.4711 177.699 35.8658 177.432C36.2604 177.165 36.5804 176.824 36.8258 176.408L38.0738 177.048C37.9031 177.443 37.6364 177.805 37.2737 178.136C36.9217 178.456 36.5004 178.712 36.0098 178.904C35.5298 179.096 34.9911 179.192 34.3938 179.192ZM39.9339 179V166.888H41.4219V179H39.9339ZM43.4108 179V170.376H44.8988V179H43.4108ZM43.4108 169V167.08H44.8988V169H43.4108ZM49.4156 179.192C48.8503 179.192 48.349 179.091 47.9116 178.888C47.485 178.675 47.149 178.387 46.9036 178.024C46.6583 177.651 46.5356 177.224 46.5356 176.744C46.5356 176.285 46.6316 175.875 46.8236 175.512C47.0263 175.139 47.3356 174.824 47.7516 174.568C48.1783 174.312 48.7116 174.131 49.3516 174.024L52.5516 173.496V174.744L49.6876 175.224C49.133 175.32 48.7276 175.496 48.4716 175.752C48.2263 176.008 48.1036 176.323 48.1036 176.696C48.1036 177.048 48.2423 177.341 48.5196 177.576C48.8076 177.811 49.165 177.928 49.5916 177.928C50.1356 177.928 50.605 177.816 50.9996 177.592C51.405 177.357 51.7196 177.043 51.9436 176.648C52.1783 176.253 52.2956 175.816 52.2956 175.336V173.144C52.2956 172.675 52.1196 172.296 51.7676 172.008C51.4263 171.709 50.973 171.56 50.4076 171.56C49.917 171.56 49.4796 171.688 49.0956 171.944C48.7223 172.189 48.445 172.52 48.2636 172.936L46.9676 172.264C47.1276 171.869 47.3836 171.517 47.7356 171.208C48.0876 170.888 48.4983 170.637 48.9676 170.456C49.437 170.275 49.9276 170.184 50.4396 170.184C51.101 170.184 51.6823 170.312 52.1836 170.568C52.685 170.813 53.0743 171.16 53.3516 171.608C53.6396 172.045 53.7836 172.557 53.7836 173.144V179H52.3276V177.368L52.5996 177.464C52.4183 177.805 52.173 178.104 51.8636 178.36C51.5543 178.616 51.1916 178.819 50.7756 178.968C50.3596 179.117 49.9063 179.192 49.4156 179.192ZM60.2347 179.192C59.5414 179.192 58.9067 179.037 58.3307 178.728C57.7654 178.419 57.3281 177.981 57.0187 177.416L57.2267 177.16V179H55.7707V166.888H57.2587V172.232L57.0347 171.864C57.3547 171.352 57.7921 170.947 58.3467 170.648C58.9014 170.339 59.5361 170.184 60.2508 170.184C61.0614 170.184 61.7868 170.381 62.4268 170.776C63.0774 171.171 63.5894 171.709 63.9628 172.392C64.3361 173.064 64.5227 173.832 64.5227 174.696C64.5227 175.539 64.3361 176.301 63.9628 176.984C63.5894 177.667 63.0774 178.205 62.4268 178.6C61.7868 178.995 61.0561 179.192 60.2347 179.192ZM60.1227 177.752C60.6667 177.752 61.1521 177.619 61.5788 177.352C62.0054 177.085 62.3361 176.723 62.5707 176.264C62.8161 175.795 62.9388 175.272 62.9388 174.696C62.9388 174.099 62.8161 173.576 62.5707 173.128C62.3361 172.669 62.0054 172.307 61.5788 172.04C61.1521 171.763 60.6667 171.624 60.1227 171.624C59.5787 171.624 59.0881 171.757 58.6507 172.024C58.2241 172.291 57.8827 172.659 57.6267 173.128C57.3814 173.587 57.2587 174.109 57.2587 174.696C57.2587 175.272 57.3814 175.795 57.6267 176.264C57.8827 176.723 58.2241 177.085 58.6507 177.352C59.0881 177.619 59.5787 177.752 60.1227 177.752ZM66.1539 179V166.888H67.6419V179H66.1539ZM70.0947 182.52C69.9027 182.52 69.7107 182.504 69.5187 182.472C69.3267 182.451 69.1454 182.403 68.9747 182.328V181C69.0921 181.011 69.2361 181.032 69.4067 181.064C69.5881 181.096 69.7641 181.112 69.9347 181.112C70.4361 181.112 70.8147 181 71.0707 180.776C71.3374 180.552 71.5881 180.173 71.8227 179.64L72.3667 178.344L72.3347 179.64L68.6547 170.376H70.2707L73.1347 177.736H72.6547L75.5027 170.376H77.1507L73.2627 180.024C73.0814 180.483 72.8467 180.904 72.5587 181.288C72.2814 181.672 71.9401 181.971 71.5347 182.184C71.1294 182.408 70.6494 182.52 70.0947 182.52ZM78.1219 179V177.08H79.6739V179H78.1219ZM90.5896 179.192C89.747 179.192 88.9576 179.043 88.2216 178.744C87.4856 178.435 86.8403 178.003 86.2856 177.448C85.7416 176.893 85.315 176.243 85.0056 175.496C84.6963 174.739 84.5416 173.917 84.5416 173.032C84.5416 172.136 84.6963 171.315 85.0056 170.568C85.315 169.821 85.7416 169.171 86.2856 168.616C86.8403 168.061 87.4803 167.635 88.2056 167.336C88.9416 167.037 89.7363 166.888 90.5896 166.888C91.443 166.888 92.2323 167.043 92.9576 167.352C93.6936 167.651 94.3336 168.077 94.8776 168.632C95.4323 169.176 95.8643 169.821 96.1736 170.568C96.4936 171.315 96.6536 172.136 96.6536 173.032C96.6536 173.917 96.4936 174.739 96.1736 175.496C95.8643 176.243 95.4323 176.893 94.8776 177.448C94.3336 178.003 93.6936 178.435 92.9576 178.744C92.2323 179.043 91.443 179.192 90.5896 179.192ZM90.5896 177.736C91.251 177.736 91.8536 177.619 92.3976 177.384C92.9416 177.139 93.411 176.803 93.8056 176.376C94.211 175.939 94.5203 175.437 94.7336 174.872C94.9576 174.296 95.0696 173.683 95.0696 173.032C95.0696 172.381 94.9576 171.773 94.7336 171.208C94.5203 170.643 94.211 170.147 93.8056 169.72C93.411 169.283 92.9416 168.947 92.3976 168.712C91.8536 168.467 91.251 168.344 90.5896 168.344C89.939 168.344 89.3416 168.467 88.7976 168.712C88.2536 168.947 87.779 169.283 87.3736 169.72C86.979 170.147 86.6696 170.643 86.4456 171.208C86.2216 171.773 86.1096 172.381 86.1096 173.032C86.1096 173.683 86.2216 174.296 86.4456 174.872C86.6696 175.437 86.979 175.939 87.3736 176.376C87.779 176.803 88.2536 177.139 88.7976 177.384C89.3416 177.619 89.939 177.736 90.5896 177.736ZM99.3565 179V171.8H97.7085V170.376H99.3565V169.768C99.3565 169.149 99.4898 168.627 99.7565 168.2C100.034 167.773 100.397 167.448 100.845 167.224C101.303 167 101.81 166.888 102.365 166.888C102.482 166.888 102.61 166.899 102.749 166.92C102.898 166.931 103.021 166.947 103.117 166.968V168.296C103.031 168.275 102.93 168.264 102.813 168.264C102.695 168.253 102.605 168.248 102.541 168.248C102.05 168.248 101.645 168.365 101.325 168.6C101.015 168.835 100.861 169.224 100.861 169.768V170.376H102.909V171.8H100.861V179H99.3565ZM110.929 179.192C110.087 179.192 109.335 178.995 108.673 178.6C108.023 178.205 107.511 177.667 107.137 176.984C106.764 176.301 106.577 175.533 106.577 174.68C106.577 173.816 106.764 173.048 107.137 172.376C107.511 171.704 108.023 171.171 108.673 170.776C109.335 170.381 110.087 170.184 110.929 170.184C111.495 170.184 112.023 170.285 112.513 170.488C113.004 170.691 113.436 170.963 113.809 171.304C114.183 171.645 114.455 172.045 114.625 172.504L113.297 173.144C113.095 172.696 112.785 172.333 112.369 172.056C111.953 171.768 111.473 171.624 110.929 171.624C110.407 171.624 109.932 171.757 109.505 172.024C109.089 172.291 108.759 172.653 108.513 173.112C108.268 173.571 108.145 174.099 108.145 174.696C108.145 175.272 108.268 175.795 108.513 176.264C108.759 176.723 109.089 177.085 109.505 177.352C109.932 177.619 110.407 177.752 110.929 177.752C111.473 177.752 111.953 177.613 112.369 177.336C112.785 177.048 113.095 176.669 113.297 176.2L114.625 176.872C114.455 177.32 114.183 177.72 113.809 178.072C113.436 178.413 113.004 178.685 112.513 178.888C112.023 179.091 111.495 179.192 110.929 179.192ZM120.346 179.192C119.514 179.192 118.762 179 118.09 178.616C117.418 178.221 116.885 177.683 116.49 177C116.095 176.317 115.898 175.544 115.898 174.68C115.898 173.816 116.09 173.048 116.474 172.376C116.869 171.704 117.402 171.171 118.074 170.776C118.746 170.381 119.503 170.184 120.346 170.184C121.178 170.184 121.93 170.381 122.602 170.776C123.274 171.16 123.802 171.688 124.186 172.36C124.581 173.032 124.778 173.805 124.778 174.68C124.778 175.555 124.575 176.333 124.17 177.016C123.765 177.688 123.226 178.221 122.554 178.616C121.893 179 121.157 179.192 120.346 179.192ZM120.346 177.752C120.879 177.752 121.359 177.619 121.786 177.352C122.223 177.085 122.565 176.717 122.81 176.248C123.066 175.779 123.194 175.256 123.194 174.68C123.194 174.093 123.066 173.576 122.81 173.128C122.565 172.669 122.223 172.307 121.786 172.04C121.359 171.763 120.879 171.624 120.346 171.624C119.802 171.624 119.311 171.763 118.874 172.04C118.447 172.307 118.106 172.669 117.85 173.128C117.594 173.576 117.466 174.093 117.466 174.68C117.466 175.256 117.594 175.779 117.85 176.248C118.106 176.717 118.447 177.085 118.874 177.352C119.311 177.619 119.802 177.752 120.346 177.752ZM129.455 179.192C128.836 179.192 128.276 179.048 127.775 178.76C127.284 178.472 126.9 178.072 126.623 177.56C126.356 177.037 126.223 176.44 126.223 175.768V170.376H127.711V175.608C127.711 176.035 127.796 176.408 127.967 176.728C128.148 177.048 128.394 177.299 128.703 177.48C129.023 177.661 129.386 177.752 129.791 177.752C130.196 177.752 130.554 177.661 130.863 177.48C131.183 177.299 131.428 177.037 131.599 176.696C131.78 176.355 131.871 175.949 131.871 175.48V170.376H133.375V179H131.919V177.32L132.159 177.464C131.956 178.008 131.61 178.435 131.119 178.744C130.639 179.043 130.084 179.192 129.455 179.192ZM135.36 179V170.376H136.816V171.96L136.656 171.736C136.859 171.245 137.168 170.883 137.584 170.648C138 170.403 138.507 170.28 139.104 170.28H139.632V171.688H138.88C138.272 171.688 137.781 171.88 137.408 172.264C137.035 172.637 136.848 173.171 136.848 173.864V179H135.36ZM143.722 179.192C142.858 179.192 142.106 178.979 141.466 178.552C140.826 178.125 140.373 177.549 140.106 176.824L141.29 176.248C141.535 176.76 141.871 177.165 142.298 177.464C142.725 177.763 143.199 177.912 143.722 177.912C144.191 177.912 144.581 177.8 144.89 177.576C145.199 177.352 145.354 177.059 145.354 176.696C145.354 176.44 145.279 176.237 145.13 176.088C144.991 175.928 144.821 175.805 144.618 175.72C144.415 175.624 144.229 175.555 144.058 175.512L142.762 175.144C141.983 174.92 141.413 174.6 141.05 174.184C140.698 173.768 140.522 173.283 140.522 172.728C140.522 172.216 140.65 171.773 140.906 171.4C141.173 171.016 141.53 170.717 141.978 170.504C142.437 170.291 142.949 170.184 143.514 170.184C144.271 170.184 144.949 170.376 145.546 170.76C146.154 171.144 146.586 171.683 146.842 172.376L145.626 172.936C145.434 172.488 145.146 172.136 144.762 171.88C144.378 171.613 143.946 171.48 143.466 171.48C143.029 171.48 142.682 171.592 142.426 171.816C142.17 172.029 142.042 172.301 142.042 172.632C142.042 172.877 142.106 173.08 142.234 173.24C142.362 173.389 142.517 173.507 142.698 173.592C142.879 173.667 143.055 173.731 143.226 173.784L144.634 174.2C145.338 174.403 145.882 174.717 146.266 175.144C146.661 175.571 146.858 176.083 146.858 176.68C146.858 177.16 146.725 177.592 146.458 177.976C146.191 178.36 145.823 178.659 145.354 178.872C144.885 179.085 144.341 179.192 143.722 179.192ZM152.454 179.192C151.622 179.192 150.88 178.995 150.23 178.6C149.579 178.205 149.067 177.667 148.694 176.984C148.32 176.291 148.134 175.517 148.134 174.664C148.134 173.8 148.315 173.032 148.678 172.36C149.051 171.688 149.552 171.16 150.182 170.776C150.822 170.381 151.536 170.184 152.326 170.184C152.966 170.184 153.531 170.301 154.022 170.536C154.523 170.76 154.944 171.069 155.286 171.464C155.638 171.848 155.904 172.291 156.086 172.792C156.278 173.283 156.374 173.795 156.374 174.328C156.374 174.445 156.363 174.579 156.342 174.728C156.331 174.867 156.315 175 156.294 175.128H149.222V173.848H155.43L154.726 174.424C154.822 173.869 154.768 173.373 154.566 172.936C154.363 172.499 154.064 172.152 153.67 171.896C153.275 171.64 152.827 171.512 152.326 171.512C151.824 171.512 151.366 171.64 150.95 171.896C150.534 172.152 150.208 172.52 149.974 173C149.75 173.469 149.659 174.029 149.702 174.68C149.659 175.309 149.755 175.864 149.99 176.344C150.235 176.813 150.576 177.181 151.014 177.448C151.462 177.704 151.947 177.832 152.47 177.832C153.046 177.832 153.531 177.699 153.926 177.432C154.32 177.165 154.64 176.824 154.886 176.408L156.134 177.048C155.963 177.443 155.696 177.805 155.334 178.136C154.982 178.456 154.56 178.712 154.07 178.904C153.59 179.096 153.051 179.192 152.454 179.192ZM162.968 179.192C162.402 179.192 161.901 179.091 161.464 178.888C161.037 178.675 160.701 178.387 160.456 178.024C160.21 177.651 160.088 177.224 160.088 176.744C160.088 176.285 160.184 175.875 160.376 175.512C160.578 175.139 160.888 174.824 161.304 174.568C161.73 174.312 162.264 174.131 162.904 174.024L166.104 173.496V174.744L163.24 175.224C162.685 175.32 162.28 175.496 162.024 175.752C161.778 176.008 161.656 176.323 161.656 176.696C161.656 177.048 161.794 177.341 162.072 177.576C162.36 177.811 162.717 177.928 163.144 177.928C163.688 177.928 164.157 177.816 164.552 177.592C164.957 177.357 165.272 177.043 165.496 176.648C165.73 176.253 165.848 175.816 165.848 175.336V173.144C165.848 172.675 165.672 172.296 165.32 172.008C164.978 171.709 164.525 171.56 163.96 171.56C163.469 171.56 163.032 171.688 162.648 171.944C162.274 172.189 161.997 172.52 161.816 172.936L160.52 172.264C160.68 171.869 160.936 171.517 161.288 171.208C161.64 170.888 162.05 170.637 162.52 170.456C162.989 170.275 163.48 170.184 163.992 170.184C164.653 170.184 165.234 170.312 165.736 170.568C166.237 170.813 166.626 171.16 166.904 171.608C167.192 172.045 167.336 172.557 167.336 173.144V179H165.88V177.368L166.152 177.464C165.97 177.805 165.725 178.104 165.416 178.36C165.106 178.616 164.744 178.819 164.328 178.968C163.912 179.117 163.458 179.192 162.968 179.192ZM172.67 179.096C171.828 179.096 171.177 178.856 170.718 178.376C170.27 177.896 170.046 177.219 170.046 176.344V171.8H168.478V170.376H168.798C169.182 170.376 169.486 170.259 169.71 170.024C169.934 169.789 170.046 169.48 170.046 169.096V168.392H171.534V170.376H173.47V171.8H171.534V176.296C171.534 176.584 171.577 176.835 171.662 177.048C171.758 177.261 171.913 177.432 172.126 177.56C172.34 177.677 172.622 177.736 172.974 177.736C173.049 177.736 173.14 177.731 173.246 177.72C173.364 177.709 173.47 177.699 173.566 177.688V179C173.428 179.032 173.273 179.053 173.102 179.064C172.932 179.085 172.788 179.096 172.67 179.096ZM180.164 179.192C179.598 179.192 179.097 179.091 178.66 178.888C178.233 178.675 177.897 178.387 177.652 178.024C177.406 177.651 177.284 177.224 177.284 176.744C177.284 176.285 177.38 175.875 177.572 175.512C177.774 175.139 178.084 174.824 178.5 174.568C178.926 174.312 179.46 174.131 180.1 174.024L183.3 173.496V174.744L180.436 175.224C179.881 175.32 179.476 175.496 179.22 175.752C178.974 176.008 178.852 176.323 178.852 176.696C178.852 177.048 178.99 177.341 179.268 177.576C179.556 177.811 179.913 177.928 180.34 177.928C180.884 177.928 181.353 177.816 181.748 177.592C182.153 177.357 182.468 177.043 182.692 176.648C182.926 176.253 183.044 175.816 183.044 175.336V173.144C183.044 172.675 182.868 172.296 182.516 172.008C182.174 171.709 181.721 171.56 181.156 171.56C180.665 171.56 180.228 171.688 179.844 171.944C179.47 172.189 179.193 172.52 179.012 172.936L177.716 172.264C177.876 171.869 178.132 171.517 178.484 171.208C178.836 170.888 179.246 170.637 179.716 170.456C180.185 170.275 180.676 170.184 181.188 170.184C181.849 170.184 182.43 170.312 182.932 170.568C183.433 170.813 183.822 171.16 184.1 171.608C184.388 172.045 184.532 172.557 184.532 173.144V179H183.076V177.368L183.348 177.464C183.166 177.805 182.921 178.104 182.612 178.36C182.302 178.616 181.94 178.819 181.524 178.968C181.108 179.117 180.654 179.192 180.164 179.192ZM188.965 179V166.888H190.453V179H188.965ZM196.537 179.192C195.705 179.192 194.953 179 194.281 178.616C193.609 178.221 193.076 177.683 192.681 177C192.287 176.317 192.089 175.544 192.089 174.68C192.089 173.816 192.281 173.048 192.665 172.376C193.06 171.704 193.593 171.171 194.265 170.776C194.937 170.381 195.695 170.184 196.537 170.184C197.369 170.184 198.121 170.381 198.793 170.776C199.465 171.16 199.993 171.688 200.377 172.36C200.772 173.032 200.969 173.805 200.969 174.68C200.969 175.555 200.767 176.333 200.361 177.016C199.956 177.688 199.417 178.221 198.745 178.616C198.084 179 197.348 179.192 196.537 179.192ZM196.537 177.752C197.071 177.752 197.551 177.619 197.977 177.352C198.415 177.085 198.756 176.717 199.001 176.248C199.257 175.779 199.385 175.256 199.385 174.68C199.385 174.093 199.257 173.576 199.001 173.128C198.756 172.669 198.415 172.307 197.977 172.04C197.551 171.763 197.071 171.624 196.537 171.624C195.993 171.624 195.503 171.763 195.065 172.04C194.639 172.307 194.297 172.669 194.041 173.128C193.785 173.576 193.657 174.093 193.657 174.68C193.657 175.256 193.785 175.779 194.041 176.248C194.297 176.717 194.639 177.085 195.065 177.352C195.503 177.619 195.993 177.752 196.537 177.752ZM204.418 179L201.458 170.376H203.106L205.458 177.592L204.882 177.576L207.186 170.376H208.594L210.898 177.576L210.322 177.592L212.69 170.376H214.322L211.362 179H209.938L207.666 171.8H208.114L205.842 179H204.418ZM217.778 182.2V170.376H219.234V172.232L219.042 171.864C219.362 171.352 219.8 170.947 220.354 170.648C220.909 170.339 221.544 170.184 222.258 170.184C223.069 170.184 223.794 170.381 224.434 170.776C225.085 171.171 225.597 171.709 225.97 172.392C226.344 173.064 226.53 173.832 226.53 174.696C226.53 175.539 226.344 176.301 225.97 176.984C225.597 177.667 225.085 178.205 224.434 178.6C223.794 178.995 223.064 179.192 222.242 179.192C221.549 179.192 220.914 179.037 220.338 178.728C219.773 178.419 219.336 177.981 219.026 177.416L219.266 177.16V182.2H217.778ZM222.13 177.752C222.674 177.752 223.16 177.619 223.586 177.352C224.013 177.085 224.344 176.723 224.578 176.264C224.824 175.795 224.946 175.272 224.946 174.696C224.946 174.099 224.824 173.576 224.578 173.128C224.344 172.669 224.013 172.307 223.586 172.04C223.16 171.763 222.674 171.624 222.13 171.624C221.586 171.624 221.096 171.757 220.658 172.024C220.232 172.291 219.89 172.659 219.634 173.128C219.389 173.587 219.266 174.109 219.266 174.696C219.266 175.272 219.389 175.795 219.634 176.264C219.89 176.723 220.232 177.085 220.658 177.352C221.096 177.619 221.586 177.752 222.13 177.752ZM228.161 179V170.376H229.617V171.96L229.457 171.736C229.66 171.245 229.969 170.883 230.385 170.648C230.801 170.403 231.308 170.28 231.905 170.28H232.433V171.688H231.681C231.073 171.688 230.583 171.88 230.209 172.264C229.836 172.637 229.649 173.171 229.649 173.864V179H228.161ZM233.435 179V170.376H234.923V179H233.435ZM233.435 169V167.08H234.923V169H233.435ZM240.912 179.192C240.069 179.192 239.317 178.995 238.656 178.6C238.005 178.205 237.493 177.667 237.12 176.984C236.747 176.301 236.56 175.533 236.56 174.68C236.56 173.816 236.747 173.048 237.12 172.376C237.493 171.704 238.005 171.171 238.656 170.776C239.317 170.381 240.069 170.184 240.912 170.184C241.477 170.184 242.005 170.285 242.496 170.488C242.987 170.691 243.419 170.963 243.792 171.304C244.165 171.645 244.437 172.045 244.608 172.504L243.28 173.144C243.077 172.696 242.768 172.333 242.352 172.056C241.936 171.768 241.456 171.624 240.912 171.624C240.389 171.624 239.915 171.757 239.488 172.024C239.072 172.291 238.741 172.653 238.496 173.112C238.251 173.571 238.128 174.099 238.128 174.696C238.128 175.272 238.251 175.795 238.496 176.264C238.741 176.723 239.072 177.085 239.488 177.352C239.915 177.619 240.389 177.752 240.912 177.752C241.456 177.752 241.936 177.613 242.352 177.336C242.768 177.048 243.077 176.669 243.28 176.2L244.608 176.872C244.437 177.32 244.165 177.72 243.792 178.072C243.419 178.413 242.987 178.685 242.496 178.888C242.005 179.091 241.477 179.192 240.912 179.192ZM250.201 179.192C249.369 179.192 248.627 178.995 247.977 178.6C247.326 178.205 246.814 177.667 246.441 176.984C246.067 176.291 245.881 175.517 245.881 174.664C245.881 173.8 246.062 173.032 246.425 172.36C246.798 171.688 247.299 171.16 247.929 170.776C248.569 170.381 249.283 170.184 250.073 170.184C250.713 170.184 251.278 170.301 251.769 170.536C252.27 170.76 252.691 171.069 253.033 171.464C253.385 171.848 253.651 172.291 253.833 172.792C254.025 173.283 254.121 173.795 254.121 174.328C254.121 174.445 254.11 174.579 254.089 174.728C254.078 174.867 254.062 175 254.041 175.128H246.969V173.848H253.177L252.473 174.424C252.569 173.869 252.515 173.373 252.313 172.936C252.11 172.499 251.811 172.152 251.417 171.896C251.022 171.64 250.574 171.512 250.073 171.512C249.571 171.512 249.113 171.64 248.697 171.896C248.281 172.152 247.955 172.52 247.721 173C247.497 173.469 247.406 174.029 247.449 174.68C247.406 175.309 247.502 175.864 247.737 176.344C247.982 176.813 248.323 177.181 248.761 177.448C249.209 177.704 249.694 177.832 250.217 177.832C250.793 177.832 251.278 177.699 251.673 177.432C252.067 177.165 252.387 176.824 252.633 176.408L253.881 177.048C253.71 177.443 253.443 177.805 253.081 178.136C252.729 178.456 252.307 178.712 251.817 178.904C251.337 179.096 250.798 179.192 250.201 179.192ZM256.349 179V177.08H257.901V179H256.349Z" fill="white"/>
</g>
<defs>
<clipPath id="clip0_0_1">
<rect width="640" height="360" rx="10" fill="white"/>
</clipPath>
</defs>
</svg>
